<?xml version="1.0" encoding="utf-8"?>
<!-- Generator: Adobe Illustrator 24.1.2, SVG Export Plug-In . SVG Version: 6.00 Build 0)  -->
<svg version="1.1" id="Layer_1" xmlns="http://www.w3.org/2000/svg" xmlns:xlink="http://www.w3.org/1999/xlink" x="0px" y="0px"
	 viewBox="0 0 1888.03 978.36" style="enable-background:new 0 0 1888.03 978.36;" xml:space="preserve">
<style type="text/css">
	.st0{fill:#FFFFFF;}
</style>
<g>
	<path class="st0" d="M847.01,305.28c12.39,0.1,24.79,0.28,38.92,0.46l149.55-0.1c14.13-0.17,26.53-0.36,38.92-0.46
		c10.35-0.08,18.35-5.93,23.34-17.9c9.44-22.65-2.52-49.7-22.35-50.36c-13.08-0.44-26.19,0.14-39.79,0.27l-149.8,0.1
		c-13.6-0.13-26.7-0.7-39.79-0.27c-19.84,0.66-31.79,27.72-22.35,50.36C828.66,299.36,836.66,305.2,847.01,305.28z"/>
	<path class="st0" d="M1101.24,466.8c-0.82-0.17-2.46-0.8-4.11-0.8c-90.97-0.03-181.95-0.02-272.92,0.15
		c-1.84,0-4.42,1.48-5.41,3.06c-9.97,15.92-20.5,31.57-29.31,48.12c-30.86,57.99-47.02,119.67-44.33,185.74
		c3.19,78.53,29.71,149.21,72.56,214.31c0.91,1.38,3.49,2.34,5.3,2.34c91.81,0.11,183.62,0.08,275.42,0.15
		c2.86,0,4.39-0.97,5.94-3.34c14.44-22.03,27.23-44.97,37.69-69.14c43.79-101.21,47.32-202.78,2.32-304.68
		C1132.73,516.31,1118.37,491.41,1101.24,466.8z M995.94,645.24c8.06,0.01,13.25,4.63,13.39,11.7c0.14,7.17-5.27,12.21-13.37,12.25
		c-5.83,0.03-11.65-0.14-17.1-0.21c-0.01,17.62-0.02,34.84-0.02,53.45c5.15-0.21,10.92-0.62,16.69-0.65
		c8.66-0.05,14.05,4.81,13.89,12.22c-0.15,7.05-5.65,11.69-13.9,11.72c-5.66,0.02-11.32,0.01-16.37,0.01
		c0.01,17.42,0.01,34.79,0.02,53.19c5.11-0.17,11.06-0.53,17.01-0.53c7.79,0.01,13.15,5.04,13.13,11.97
		c-0.02,6.94-5.37,11.81-13.2,11.95c-3,0.05-6,0.06-9,0c-2.83-0.06-5.65-0.26-9.2-0.43c-0.02,7.35,0.09,14.11-0.08,20.85
		c-0.18,7.34-3.67,12.76-10.42,15.67c-6.58,2.84-12.77,1.62-18.13-3.05c-3.99-3.48-5.82-8.05-5.67-13.34
		c0.18-6.46,0.46-12.92,0.73-20.19c-7.37,0.19-13.35,0.49-19.33,0.45c-7.73-0.05-13.11-5.22-12.98-12.14
		c0.13-6.77,5.37-11.7,12.86-11.75c5.99-0.04,11.97,0.27,17.7,0.42c-0.17-17.99-0.33-35.25-0.5-53.4
		c-4.67,0.09-10.58,0.3-16.49,0.29c-8.12-0.02-13.58-5.01-13.5-12.12c0.08-7.02,5.35-11.78,13.3-11.83
		c5.82-0.03,11.64,0.13,17.21,0.21c-0.09-17.65-0.17-34.89-0.27-53.01c-4.92,0.08-10.83,0.27-16.74,0.26
		c-8.11-0.01-13.61-4.98-13.57-12.07c0.04-7.33,5.2-11.88,13.67-11.89c5.79-0.01,11.58,0.17,17.13,0.25
		c-0.06-18.02-0.11-35.28-0.17-53.51c-5.36,0.18-11.35,0.56-17.33,0.55c-7.95-0.01-13.32-4.86-13.37-11.73
		c-0.05-7.25,5.3-12.09,13.51-12.13c5.81-0.02,11.62,0.07,18.22,0.11c-0.06-9.1-0.35-17.87-0.13-26.63
		c0.33-13.28,13.93-21.28,25.32-14.96c6.02,3.34,8.96,8.7,9,15.62c0.05,8.47,0.15,16.94,0.23,26.65c6.01-0.25,11.98-0.69,17.95-0.71
		c7.97-0.03,13.27,4.81,13.37,11.79c0.1,7.06-5.42,12.09-13.53,12.14c-5.82,0.03-11.65-0.16-16.86-0.24
		c-0.04,17.68-0.09,34.91-0.13,53.1C984.05,645.45,989.99,645.23,995.94,645.24z"/>
	
		<ellipse transform="matrix(0.8257 -0.5641 0.5641 0.8257 78.1093 602.8574)" class="st0" cx="1014.73" cy="175.02" rx="36.16" ry="36.16"/>
	
		<ellipse transform="matrix(0.3037 -0.9528 0.9528 0.3037 517.4211 942.5903)" class="st0" cx="903.59" cy="117.3" rx="58.79" ry="58.79"/>
	<path class="st0" d="M150.29,544.64H92.94v67.94H68.68v43.67h24.26v113.82c0,32.64,19.85,65.73,66.61,65.73h31.32v-48.53h-20.73
		c-13.68,0-19.85-7.5-19.85-20.73V656.25h40.58v-43.67h-40.58V544.64z"/>
	<path class="st0" d="M346.46,603.32c-20.29,0-39.7,7.94-55.14,23.82V521.7h-57.35v314.1h57.35V695.52c0-30,18.97-40.58,37.06-40.58
		s37.5,10.15,37.5,40.58V835.8h57.35V687.14C423.22,638.61,396.75,603.32,346.46,603.32z"/>
	<path class="st0" d="M564.42,603.32c-59.55,0-100.14,42.35-100.14,117.34c0,93.08,52.05,117.79,106.32,117.79
		c41.47,0,63.97-12.79,87.35-36.17l-34.85-33.97c-14.56,14.56-26.91,21.62-52.06,21.62c-32.2,0-50.29-21.62-50.29-51.17h143.81
		v-25.59C664.56,650.08,628.39,603.32,564.42,603.32z M520.75,699.49c0.44-10.15,1.76-16.32,5.29-24.7
		c6.18-13.68,18.97-23.82,38.38-23.82c19.41,0,32.2,10.15,38.38,23.82c3.53,8.38,4.85,14.56,5.29,24.7H520.75z"/>
	<path class="st0" d="M1314.02,766.54V521.7h-57.35v248.37c0,32.64,19.85,65.73,67.05,65.73h32.64v-48.53h-22.06
		C1319.76,787.27,1314.02,780.22,1314.02,766.54z"/>
	<path class="st0" d="M1477.03,603.32c-38.38,0-60.44,7.06-82.94,31.76l36.62,35.73c11.91-13.67,22.06-18.97,44.11-18.97
		c30.44,0,42.79,11.03,42.79,36.17v11.47h-54.26c-53.38,0-78.52,30-78.52,66.61c0,20.29,6.62,38.82,18.97,51.61
		c13.68,13.68,32.64,20.29,58.67,20.29c26.47,0,41.03-6.62,56.47-22.06v19.85h56.03V684.49
		C1574.96,630.67,1541.43,603.32,1477.03,603.32z M1517.61,751.1c0,14.12-2.21,23.38-8.38,29.12
		c-10.15,9.71-20.29,11.03-36.17,11.03c-22.5,0-33.09-10.59-33.09-26.47c0-16.32,11.47-26.03,32.2-26.03h45.44V751.1z"/>
	<path class="st0" d="M1795.97,624.05c-12.79-12.79-33.53-20.73-56.03-20.73c-23.38,0-40.59,6.18-55.58,22.94V521.7h-57.35v314.1
		h55.58v-21.62c15.88,17.65,33.09,24.26,57.35,24.26c22.5,0,43.23-7.94,56.03-20.73c22.94-22.94,23.38-62.64,23.38-97.05
		C1819.35,686.25,1818.91,646.99,1795.97,624.05z M1723.18,786.83c-34.41,0-38.82-28.67-38.82-66.17c0-37.5,4.41-65.73,38.82-65.73
		c34.41,0,38.82,28.23,38.82,65.73C1762,758.16,1757.59,786.83,1723.18,786.83z"/>
	<path class="st0" d="M879.36,331.32v64.81c-4.45,4.53-8.83,9.13-13.15,13.8c-6.26,6.79-12.28,13.8-18.2,20.47
		c75.24,0,150.21,0,225.43,0c-5.93-6.69-11.95-13.72-18.22-20.5c-4.32-4.67-8.71-9.26-13.15-13.79v-64.8H879.36z"/>
</g>
</svg>
